<svg width="108" height="25" viewBox="0 0 108 25" fill="none" xmlns="http://www.w3.org/2000/svg">
<g opacity="0.95">
<path fill-rule="evenodd" clip-rule="evenodd" d="M36.38 0.25812C38.0024 2.33383 39.1673 3.16735 41.7949 4.24285L42.2471 4.40955V9.78705L41.4013 9.57732C39.982 9.2457 38.6195 8.70197 37.3588 7.96407V24.6935H27.7843V7.96945C26.5216 8.70734 25.1574 9.25105 23.7364 9.5827L22.8906 9.79242V4.41493L23.3215 4.24285C25.9438 3.18886 27.1087 2.33383 28.7417 0.25812L28.9332 0H36.1885L36.38 0.25812ZM36.6513 6.65196C38.1053 7.74889 39.7705 8.52561 41.5396 8.93202V4.88277C38.7843 3.775 37.5396 2.83932 35.8481 0.68832H33.2364V24.0051H36.6513V6.65196Z" fill="#44C994"/>
<path fill-rule="evenodd" clip-rule="evenodd" d="M77.3423 0.25812C78.9647 2.33383 80.1296 3.16735 82.7519 4.24285L83.2094 4.40955V9.78705L82.3636 9.57732C80.9423 9.24667 79.5779 8.7029 78.3157 7.96407V24.6935H68.7413V7.96945C67.4791 8.70828 66.1147 9.25205 64.6934 9.5827L63.8477 9.79242V4.41493L64.2785 4.24285C66.9008 3.18886 68.0923 2.33383 69.6881 0.25812L69.8955 0H77.1349L77.3423 0.25812ZM77.6083 6.65196C79.0647 7.74806 80.7315 8.52465 82.5019 8.93202V4.88277C79.7413 3.775 78.4966 2.83932 76.8051 0.68832H74.1934V24.0051H77.6083V6.65196Z" fill="#44C994"/>
<path d="M53.0183 3.76465C49.3694 3.76465 47.8906 6.24368 47.8906 12.3364C47.8906 18.4291 49.38 20.9027 53.0289 20.9027C56.6779 20.9027 58.1672 18.4237 58.1672 12.3364C58.1672 6.24905 56.6672 3.76465 53.0183 3.76465Z" fill="#44C994"/>
<path d="M53.0197 0C46.525 0 43.6367 3.85567 43.6367 12.5027C43.6367 21.1497 46.5303 25 53.0251 25C59.5198 25 62.4134 21.1443 62.4134 12.5027C62.4134 3.86105 59.5144 0 53.0197 0ZM53.0197 24.3117C46.9984 24.3117 44.3123 20.6711 44.3123 12.4812C44.3123 4.19983 46.9133 0.650678 53.0197 0.650678C59.0623 0.68832 61.7219 4.32889 61.7219 12.5027C61.7219 20.7787 59.1261 24.3117 53.0197 24.3117Z" fill="#44C994"/>
</g>
<path d="M2.12842 14.4605H3.48103L5.22337 17.5662H7.76811L5.72773 14.1949C6.64476 13.8486 7.33252 13.0866 7.33252 11.5048C7.33252 9.02253 5.57872 8.56071 3.96247 8.56071H0.0078125V17.5662H2.12842V14.4605ZM2.12842 12.5439V10.4657H4.12295C4.56999 10.4657 5.17752 10.5581 5.17752 11.5048C5.17752 12.4631 4.56999 12.5439 4.12295 12.5439H2.12842Z" fill="white"/>
<path d="M12.8989 8.56071V17.5662H19.6161V15.6612H15.0196V13.9178H18.7679V12.0128H15.0196V10.4657H19.3869V8.56071H12.8989Z" fill="white"/>
<path d="M30.9754 17.5662H33.245L30.1157 8.44525H27.6168L24.4874 17.5662H26.7571L27.227 16.0307H30.5054L30.9754 17.5662ZM28.6026 11.5626L28.8662 10.6505L29.1299 11.5626L29.9667 14.2989H27.7543L28.6026 11.5626Z" fill="white"/>
<path d="M40.4884 8.56071H38.3678V17.5662H44.5577V15.6612H40.4884V8.56071Z" fill="white"/>
<path d="M53.0898 17.751C54.9926 17.751 56.8725 16.9197 56.8382 14.7607C56.8038 12.5439 55.5314 12.1745 53.0898 12.0359C51.8404 11.9551 51.5424 11.8627 51.5309 11.3432C51.5194 10.5235 52.2989 10.2925 52.9179 10.281C54.0412 10.2579 54.6488 10.6274 54.6717 11.6549L56.8267 11.3894C56.8038 9.50744 55.5429 8.37598 52.9179 8.37598C51.038 8.37598 49.3644 9.29962 49.4103 11.3894C49.4561 13.5253 51.1755 13.8024 52.9981 13.8832C54.3393 13.9525 54.729 14.1949 54.7405 14.8069C54.7519 15.615 53.9151 15.8229 53.0898 15.846C51.9665 15.8806 51.359 15.4996 51.336 14.472L49.181 14.7376C49.2039 16.6195 50.2012 17.751 53.0898 17.751Z" fill="white"/>
<path d="M64.4572 12.7748V10.4657H66.1652C66.6122 10.4657 67.1624 10.6735 67.1624 11.6203C67.1624 12.5786 66.6122 12.7748 66.1652 12.7748H64.4572ZM64.4572 14.6914H66.0506C67.6668 14.6914 69.3174 14.1141 69.3174 11.6203C69.3174 9.13798 67.621 8.56071 66.0047 8.56071H62.3366V17.5662H64.4572V14.6914Z" fill="white"/>
<path d="M78.5926 17.751C81.6073 17.751 82.8109 15.869 82.8109 13.0635C82.8109 10.2579 81.5959 8.37598 78.5926 8.37598C75.5779 8.37598 74.3743 10.2579 74.3743 13.0635C74.3743 15.869 75.5894 17.751 78.5926 17.751ZM78.5926 10.281C80.2891 10.281 80.6674 11.6087 80.6674 13.0635C80.6674 14.5182 80.2891 15.846 78.5926 15.846C76.8961 15.846 76.5178 14.5182 76.5178 13.0635C76.5178 11.6087 76.8961 10.281 78.5926 10.281Z" fill="white"/>
<path d="M90.5977 14.4605H91.9503L93.6927 17.5662H96.2374L94.197 14.1949C95.114 13.8486 95.8018 13.0866 95.8018 11.5048C95.8018 9.02253 94.048 8.56071 92.4318 8.56071H88.4771V17.5662H90.5977V14.4605ZM90.5977 12.5439V10.4657H92.5922C93.0393 10.4657 93.6468 10.5581 93.6468 11.5048C93.6468 12.4631 93.0393 12.5439 92.5922 12.5439H90.5977Z" fill="white"/>
<path d="M105.194 10.4657H107.647V8.56071H100.62V10.4657H103.073V17.5662H105.194V10.4657Z" fill="white"/>
</svg>
